<svg width="111" height="133" viewBox="0 0 111 133" fill="none" xmlns="http://www.w3.org/2000/svg">
<path d="M0 133V66.5H5.84211V79.8H22.5856L40.7487 11.3183V0H46.5908V13.3H64.2632V0H70.1053V10.487L88.4144 79.8H105.158V66.5H111V133H64.2632V99.75H46.7368V133H0ZM32.2893 66.5H78.7107L73.4119 46.55H37.5881L32.2893 66.5ZM39.2998 39.9H71.7002L66.4014 19.95H44.6045L39.2998 39.9ZM5.84211 126.35H40.8947V93.1H70.1053V126.35H105.158V86.45H83.9277L80.4224 73.15H30.5776L27.0723 86.45H5.84211V126.35Z" fill="#FC8B41"/>
</svg>
