<svg width="148" height="61" viewBox="0 0 148 61" fill="none" xmlns="http://www.w3.org/2000/svg">
<path fill-rule="evenodd" clip-rule="evenodd" d="M98.8569 57.1871C96.7257 57.1871 94.7012 56.3408 93.1762 54.8348C91.6512 53.3289 90.8239 51.2854 90.8239 49.1542V11.8298C90.8239 9.69862 91.6703 7.67419 93.1762 6.14919C94.6822 4.62419 96.7257 3.79688 98.8569 3.79688H136.181C138.312 3.79688 140.337 4.64325 141.862 6.14919C143.387 7.65513 144.214 9.69862 144.214 11.8298V49.1542C144.214 51.2854 143.368 53.3098 141.862 54.8348C140.356 56.3598 138.312 57.1871 136.181 57.1871H98.8569ZM131.454 34.6553H125.811V53.2984H136.181C136.726 53.2999 137.265 53.1937 137.769 52.986C138.272 52.7783 138.73 52.4731 139.115 52.0879C139.5 51.7028 139.805 51.2454 140.013 50.7419C140.221 50.2384 140.327 49.6988 140.325 49.1542V11.8298C140.326 11.2854 140.219 10.7463 140.011 10.2433C139.803 9.74028 139.498 9.28323 139.113 8.89831C138.728 8.51339 138.271 8.20815 137.768 8.00006C137.265 7.79197 136.726 7.68512 136.181 7.68563H98.8569C97.7587 7.68864 96.7063 8.12623 95.9298 8.90276C95.1533 9.6793 94.7157 10.7316 94.7127 11.8298V49.1542C94.7157 50.2524 95.1533 51.3047 95.9298 52.0812C96.7063 52.8578 97.7587 53.2954 98.8569 53.2984H119.597V34.6553H113.382V28.4409H119.597V25.1011C119.597 18.7724 122.677 15.9892 127.946 15.9892C130.413 15.9892 131.74 16.1684 132.369 16.2561L132.407 16.2599V22.2074H128.823C127.016 22.2074 126.162 22.9814 125.903 24.5407C125.84 24.9469 125.811 25.3574 125.815 25.7683V28.4256H132.334L131.446 34.64L131.454 34.6553Z" fill="#ED6811"/>
<path d="M27 4C19.6729 4 18.7515 4.03375 15.8726 4.162C12.9938 4.297 11.0329 4.74925 9.315 5.4175C7.51222 6.0936 5.87973 7.15697 4.53263 8.53263C3.15697 9.87973 2.0936 11.5122 1.4175 13.315C0.74925 15.0295 0.293625 16.9937 0.162 19.8625C0.03375 22.7481 0 23.6661 0 31.0034C0 38.3339 0.03375 39.2519 0.162 42.1308C0.297 45.0063 0.74925 46.9671 1.4175 48.685C2.10938 50.4603 3.03075 51.9655 4.53263 53.4674C6.03113 54.9692 7.53638 55.894 9.31163 56.5825C11.0329 57.2508 12.9904 57.7064 15.8659 57.838C18.7481 57.9662 19.6661 58 27 58C34.3339 58 35.2485 57.9662 38.1308 57.838C41.0029 57.703 42.9705 57.2508 44.6884 56.5825C46.4899 55.906 48.1213 54.8426 49.4674 53.4674C50.9692 51.9655 51.8906 50.4603 52.5825 48.685C53.2474 46.9671 53.703 45.0063 53.838 42.1308C53.9662 39.2519 54 38.3339 54 31C54 23.6661 53.9662 22.7481 53.838 19.8659C53.703 16.9938 53.2474 15.0295 52.5825 13.315C51.9064 11.5122 50.843 9.87973 49.4674 8.53263C48.1203 7.15697 46.4878 6.0936 44.685 5.4175C42.9637 4.74925 40.9995 4.29362 38.1274 4.162C35.2451 4.03375 34.3305 4 26.9932 4H27ZM24.5801 8.86675H27.0034C34.2124 8.86675 35.0662 8.89038 37.9114 9.022C40.5439 9.14013 41.9749 9.58225 42.9266 9.95013C44.1855 10.4395 45.0866 11.0268 46.0316 11.9717C46.9766 12.9167 47.5605 13.8145 48.0499 15.0767C48.4211 16.0251 48.8599 17.4561 48.978 20.0886C49.1096 22.9338 49.1366 23.7876 49.1366 30.9932C49.1366 38.1989 49.1096 39.0561 48.978 41.9012C48.8599 44.5337 48.4178 45.9614 48.0499 46.9131C47.6139 48.0839 46.9234 49.1433 46.0282 50.0147C45.0832 50.9598 44.1855 51.5436 42.9233 52.033C41.9783 52.4043 40.5472 52.843 37.9114 52.9645C35.0662 53.0928 34.2124 53.1231 27.0034 53.1231C19.7944 53.1231 18.9371 53.0928 16.092 52.9645C13.4595 52.843 12.0319 52.4043 11.0801 52.033C9.90844 51.5985 8.84789 50.9091 7.97512 50.0147C7.0783 49.1427 6.38661 48.0821 5.95013 46.9097C5.58225 45.9614 5.14013 44.5304 5.022 41.8979C4.89375 39.0527 4.86675 38.1989 4.86675 30.9865C4.86675 23.7741 4.89375 22.927 5.022 20.0819C5.1435 17.4494 5.58225 16.0184 5.9535 15.0666C6.44288 13.8077 7.03012 12.9066 7.97512 11.9616C8.92013 11.0166 9.81787 10.4328 11.0801 9.94338C12.0319 9.57212 13.4595 9.13338 16.092 9.01188C18.5828 8.89713 19.548 8.86338 24.5801 8.86V8.86675ZM41.4146 13.3488C40.9891 13.3488 40.5678 13.4326 40.1747 13.5954C39.7816 13.7582 39.4245 13.9969 39.1236 14.2977C38.8227 14.5986 38.5841 14.9558 38.4213 15.3489C38.2584 15.742 38.1746 16.1633 38.1746 16.5887C38.1746 17.0142 38.2584 17.4355 38.4213 17.8286C38.5841 18.2217 38.8227 18.5789 39.1236 18.8798C39.4245 19.1806 39.7816 19.4193 40.1747 19.5821C40.5678 19.7449 40.9891 19.8288 41.4146 19.8288C42.2739 19.8288 43.098 19.4874 43.7057 18.8798C44.3133 18.2722 44.6546 17.4481 44.6546 16.5887C44.6546 15.7294 44.3133 14.9053 43.7057 14.2977C43.098 13.6901 42.2739 13.3488 41.4146 13.3488ZM27.0034 17.1355C25.1642 17.1068 23.3378 17.4443 21.6303 18.1282C19.9228 18.8122 18.3685 19.829 17.0578 21.1194C15.747 22.4099 14.7061 23.9482 13.9956 25.6448C13.2851 27.3413 12.9192 29.1623 12.9192 31.0017C12.9192 32.841 13.2851 34.662 13.9956 36.3586C14.7061 38.0552 15.747 39.5935 17.0578 40.8839C18.3685 42.1744 19.9228 43.1912 21.6303 43.8751C23.3378 44.5591 25.1642 44.8966 27.0034 44.8679C30.6435 44.8111 34.1152 43.3252 36.6693 40.731C39.2234 38.1367 40.6549 34.6422 40.6549 31.0017C40.6549 27.3612 39.2234 23.8666 36.6693 21.2724C34.1152 18.6782 30.6435 17.1923 27.0034 17.1355ZM27.0034 21.9989C28.1854 21.9989 29.3559 22.2317 30.448 22.684C31.54 23.1364 32.5323 23.7994 33.3681 24.6352C34.204 25.4711 34.867 26.4634 35.3193 27.5554C35.7717 28.6475 36.0045 29.818 36.0045 31C36.0045 32.182 35.7717 33.3525 35.3193 34.4446C34.867 35.5366 34.204 36.5289 33.3681 37.3648C32.5323 38.2006 31.54 38.8636 30.448 39.316C29.3559 39.7683 28.1854 40.0011 27.0034 40.0011C24.6161 40.0011 22.3267 39.0528 20.6386 37.3648C18.9506 35.6767 18.0023 33.3872 18.0023 31C18.0023 28.6128 18.9506 26.3233 20.6386 24.6352C22.3267 22.9472 24.6161 21.9989 27.0034 21.9989Z" fill="#ED6811"/>
</svg>
