<svg width="124" height="117" viewBox="0 0 124 117" fill="none" xmlns="http://www.w3.org/2000/svg">
<path d="M88.684 58.026L63.8114 35.7179C60.9047 33.1005 58.4802 30.1739 56.5379 26.9381C54.5957 23.7024 53.6246 20.1781 53.6246 16.3653C53.6246 11.8188 55.3246 7.95442 58.7246 4.77226C62.1202 1.5901 66.2447 -0.000976562 71.0981 -0.000976562C74.7051 -0.000976562 77.9863 0.91204 80.9415 2.73807C83.8967 4.5641 86.4753 6.78172 88.6774 9.39093C90.8795 6.78172 93.4603 4.5641 96.4199 2.73807C99.3707 0.91204 102.652 -0.000976562 106.263 -0.000976562C111.121 -0.000976562 115.248 1.5901 118.643 4.77226C122.039 7.95442 123.741 11.8167 123.75 16.3591C123.75 20.1761 122.786 23.7024 120.856 26.9381C118.923 30.1739 116.503 33.1005 113.596 35.7179L88.684 58.026ZM88.684 49.5121L108.47 31.7856C110.813 29.6669 112.845 27.3215 114.567 24.7494C116.285 22.1773 117.144 19.3805 117.144 16.3591C117.144 13.5397 116.087 11.1386 113.973 9.15598C111.859 7.17331 109.289 6.18198 106.263 6.18198C103.621 6.18198 101.251 6.92187 99.1549 8.40166C97.0585 9.87732 95.1757 11.6189 93.5066 13.6262L88.684 19.2836L83.8548 13.6262C82.1812 11.6189 80.2984 9.87732 78.2065 8.40166C76.1101 6.92187 73.7406 6.18198 71.0981 6.18198C68.0813 6.18198 65.5158 7.17125 63.4018 9.14979C61.2834 11.1366 60.2242 13.5397 60.2242 16.3591C60.2242 19.3805 61.083 22.1773 62.8007 24.7494C64.5183 27.3215 66.5508 29.6669 68.8982 31.7856L88.684 49.5121ZM27.3251 96.7869L77.3014 110.433L116.866 98.9943C116.734 97.1188 116.133 95.7668 115.063 94.9382C113.993 94.1097 112.781 93.6955 111.429 93.6955H80.0826C77.2904 93.6955 74.758 93.5924 72.4854 93.3863C70.2129 93.1802 67.8897 92.6897 65.5158 91.9148L51.0481 87.4754L53.2811 81.3667L66.6587 85.8926C68.7815 86.6469 71.195 87.1003 73.8992 87.2528C76.5989 87.4012 80.2984 87.4878 84.9977 87.5125C84.9977 85.5834 84.6189 84.0253 83.8614 82.8382C83.1039 81.6511 82.0183 80.8226 80.6045 80.3527L42.5921 67.2943C42.3411 67.216 42.1077 67.1582 41.8919 67.1211C41.6761 67.0841 41.4448 67.0634 41.1982 67.0593H27.3251V96.7869ZM0.900024 111.292V60.8764H41.0396C41.6562 60.8764 42.2904 60.9423 42.9423 61.0742C43.5941 61.2061 44.1996 61.3586 44.759 61.5318L82.9365 74.6211C85.3016 75.462 87.3363 76.9727 89.0407 79.1532C90.7495 81.3337 91.604 84.1201 91.604 87.5125H111.423C115.404 87.5125 118.452 88.677 120.566 91.0059C122.684 93.3389 123.743 96.2964 123.743 99.8784V103.681L77.6317 116.999L27.3185 103.273V111.292H0.900024ZM7.50628 105.109H20.7188V67.0593H7.50628V105.109Z" fill="#FC8B41"/>
</svg>
