<svg width="130" height="130" viewBox="0 0 130 130" fill="none" xmlns="http://www.w3.org/2000/svg">
<path d="M92.8931 64.4744L66.5729 39.6877C63.497 36.7794 60.9314 33.5276 58.8761 29.9324C56.8208 26.3371 55.7932 22.4212 55.7932 18.1847C55.7932 13.133 57.5921 8.83933 61.19 5.3036C64.7833 1.76787 69.1478 0 74.2837 0C78.1007 0 81.5727 1.01446 84.6999 3.04339C87.8271 5.07231 90.5558 7.53633 92.8861 10.4354C95.2163 7.53633 97.9474 5.07231 101.079 3.04339C104.202 1.01446 107.674 0 111.495 0C116.636 0 121.003 1.76787 124.596 5.3036C128.189 8.83933 129.991 13.1308 130 18.1779C130 22.4189 128.979 26.3371 126.938 29.9324C124.892 33.5276 122.331 36.7794 119.255 39.6877L92.8931 64.4744ZM92.8931 55.0145L113.83 35.3184C116.31 32.9643 118.461 30.3583 120.283 27.5004C122.1 24.6425 123.009 21.535 123.009 18.1779C123.009 15.0452 121.891 12.3774 119.654 10.1744C117.417 7.97143 114.697 6.86995 111.495 6.86995C108.699 6.86995 106.192 7.69205 103.973 9.33626C101.755 10.9759 99.7627 12.9109 97.9963 15.1414L92.8931 21.4274L87.7829 15.1414C86.0119 12.9109 84.0195 10.9759 81.8058 9.33626C79.5874 7.69205 77.08 6.86995 74.2837 6.86995C71.0913 6.86995 68.3765 7.96914 66.1395 10.1675C63.8978 12.3751 62.7769 15.0452 62.7769 18.1779C62.7769 21.535 63.6857 24.6425 65.5033 27.5004C67.3209 30.3583 69.4717 32.9643 71.9558 35.3184L92.8931 55.0145ZM27.963 107.542L80.848 122.704L122.716 109.995C122.576 107.911 121.94 106.409 120.807 105.488C119.675 104.567 118.393 104.107 116.962 104.107H83.7911C80.8364 104.107 78.1566 103.993 75.7518 103.764C73.3469 103.535 70.8885 102.99 68.3765 102.129L53.0668 97.196L55.4297 90.4085L69.5859 95.4373C71.8323 96.2754 74.3862 96.7792 77.2478 96.9487C80.1047 97.1136 84.0195 97.2097 88.9922 97.2372C88.9922 95.0938 88.5914 93.3626 87.7898 92.0435C86.9882 90.7245 85.8394 89.8039 84.3434 89.2818L44.1186 74.7725C43.853 74.6855 43.606 74.6214 43.3776 74.5801C43.1492 74.5389 42.9046 74.516 42.6436 74.5114H27.963V107.542ZM0 123.659V67.6415H42.4758C43.1283 67.6415 43.7994 67.7148 44.4891 67.8613C45.1789 68.0079 45.8197 68.1773 46.4116 68.3697L86.8111 82.9134C89.3138 83.8477 91.467 85.5263 93.2706 87.9491C95.0789 90.3719 95.983 93.4679 95.983 97.2372H116.955C121.168 97.2372 124.393 98.5311 126.63 101.119C128.872 103.711 129.993 106.997 129.993 110.977V115.202L81.1976 130L27.956 114.749V123.659H0ZM6.99075 116.789H20.9722V74.5114H6.99075V116.789Z" fill="#FC8B41"/>
</svg>
