<svg width="86" height="116" viewBox="0 0 86 116" fill="none" xmlns="http://www.w3.org/2000/svg">
<path d="M12.1034 116V109.253C8.95185 109.253 6.25624 108.185 4.01659 106.048C1.77694 103.912 0.654749 101.35 0.650024 98.3635V32.446C0.650024 29.4504 1.77221 26.8865 4.01659 24.7545C6.26096 22.6225 8.95421 21.5519 12.0963 21.543H28.3196V5.19514C28.3196 3.80077 28.863 2.58633 29.9497 1.5518C31.0365 0.517266 32.3099 0 33.7699 0H52.5801C54.0449 0 55.3206 0.517266 56.4074 1.5518C57.4941 2.58633 58.0375 3.80077 58.0375 5.19514V21.543H74.2537C77.4006 21.543 80.0938 22.6112 82.3335 24.7477C84.5731 26.8843 85.6953 29.4481 85.7 32.4392V98.3568C85.7 101.352 84.5778 103.916 82.3335 106.048C80.0891 108.18 77.3958 109.249 74.2537 109.253V116H67.1662V109.253H19.1838V116H12.1034ZM35.4071 21.543H50.9429V6.75368H35.4071V21.543ZM43.175 57.8752C49.4356 57.8752 55.5498 57.115 61.5175 55.5947C67.4852 54.0744 73.1835 51.7984 78.6125 48.7668V32.4392C78.6125 31.2293 78.2038 30.2353 77.3864 29.4571C76.569 28.679 75.5247 28.2899 74.2537 28.2899H12.0963C10.8253 28.2899 9.78109 28.679 8.96366 29.4571C8.14624 30.2353 7.73752 31.2315 7.73752 32.446V48.7668C13.1713 51.8029 18.872 54.0789 24.8397 55.5947C30.8073 57.1105 36.9191 57.8707 43.175 57.8752ZM39.6313 71.369V64.5411C34.0369 64.1543 28.5795 63.311 23.2591 62.011C17.9388 60.7111 12.7649 58.8467 7.73752 56.4178V98.3568C7.73752 99.5667 8.14624 100.561 8.96366 101.339C9.78109 102.117 10.8277 102.506 12.1034 102.506H74.2537C75.5247 102.506 76.569 102.117 77.3864 101.339C78.2038 100.561 78.6125 99.5667 78.6125 98.3568V56.4178C73.5804 58.8467 68.4065 60.7111 63.0909 62.011C57.7753 63.311 52.3179 64.1543 46.7188 64.5411V71.369H39.6313Z" fill="#FC8B41"/>
</svg>
