<svg width="94" height="94" viewBox="0 0 94 94" fill="none" xmlns="http://www.w3.org/2000/svg">
<path d="M19.7143 87.7485C18.0078 87.7485 16.584 87.1755 15.4429 86.0294C14.3019 84.8833 13.7302 83.4519 13.7277 81.7352V41.6662C13.7277 39.952 14.2995 38.5218 15.4429 37.3757C16.5864 36.2296 18.009 35.6553 19.7106 35.6528H74.4273C76.1314 35.6528 77.554 36.2271 78.695 37.3757C79.836 38.5243 80.4077 39.9544 80.4102 41.6662V81.7389C80.4102 83.4506 79.8385 84.8808 78.695 86.0294C77.5515 87.1779 76.1289 87.751 74.4273 87.7485H19.7143ZM76.7056 42.6671L48.7286 61.0644C48.4668 61.2008 48.2026 61.3162 47.9358 61.4104C47.6666 61.5022 47.3777 61.5481 47.069 61.5481C46.7603 61.5481 46.4713 61.5022 46.2021 61.4104C45.9329 61.3186 45.6686 61.2033 45.4093 61.0644L17.4323 42.6634V81.7352C17.4323 82.405 17.6459 82.9545 18.0732 83.3836C18.5005 83.8128 19.0475 84.0274 19.7143 84.0274H74.4273C75.0917 84.0274 75.6375 83.8128 76.0647 83.3836C76.492 82.9545 76.7056 82.405 76.7056 81.7352V42.6671ZM47.069 57.9796L75.5646 39.374H18.5733L47.069 57.9796ZM17.4323 43.4523V40.4345V40.561V39.374V40.5647V40.3712V43.4523Z" fill="#FC8B41"/>
</svg>
