<svg width="117" height="116" viewBox="0 0 117 116" fill="none" xmlns="http://www.w3.org/2000/svg">
<path d="M67.9829 54.2248C64.0169 54.2248 60.6199 52.8108 57.7921 49.983C54.9642 47.1551 53.5519 43.7598 53.5551 39.7969C53.5583 35.8341 54.9706 32.4355 57.7921 29.6013C60.6135 26.767 64.0105 25.3579 67.9829 25.3739C71.9554 25.3899 75.3524 26.8007 78.1738 29.6061C80.9952 32.4115 82.4076 35.81 82.4108 39.8017C82.414 43.7934 81.0017 47.1888 78.1738 49.9878C75.3459 52.7868 71.949 54.1959 67.9829 54.2248ZM34.318 89.0006V81.0846C34.318 79.0999 34.8951 77.2435 36.0493 75.5154C37.2067 73.7841 38.7617 72.4407 40.7143 71.4852C45.2543 69.3082 49.7974 67.6763 54.3438 66.5894C58.887 65.4993 63.4333 64.9543 67.9829 64.9543C72.5325 64.9543 77.0805 65.4993 81.6269 66.5894C86.1732 67.6795 90.7132 69.3115 95.2467 71.4852C97.2025 72.4407 98.7575 73.7841 99.9117 75.5154C101.069 77.2435 101.648 79.0999 101.648 81.0846V89.0006H34.318ZM39.1272 84.1913H96.8386V81.0846C96.8386 80.0201 96.4939 79.0182 95.8046 78.0788C95.1185 77.1426 94.1679 76.3506 92.9527 75.703C88.9963 73.7857 84.9148 72.3172 80.7083 71.2977C76.5018 70.2781 72.26 69.7667 67.9829 69.7635C63.7059 69.7603 59.4641 70.2701 55.2576 71.2929C51.0511 72.3156 46.9696 73.7841 43.0131 75.6982C41.7948 76.3458 40.8442 77.1377 40.1612 78.074C39.4719 79.0134 39.1272 80.0169 39.1272 81.0846V84.1913ZM67.9829 49.4203C70.628 49.4203 72.8932 48.4777 74.7784 46.5924C76.6637 44.7072 77.6047 42.4404 77.6015 39.7921C77.5983 37.1438 76.6573 34.8802 74.7784 33.0014C72.8996 31.1226 70.6344 30.18 67.9829 30.1736C65.3314 30.1672 63.0678 31.1098 61.1922 33.0014C59.3166 34.8931 58.374 37.1566 58.3644 39.7921C58.3547 42.4276 59.2974 44.6928 61.1922 46.5876C63.0871 48.4825 65.3506 49.4235 67.9829 49.4107" fill="#FC8B41"/>
</svg>
