<svg width="122" height="103" viewBox="0 0 122 103" fill="none" xmlns="http://www.w3.org/2000/svg">
<path d="M120.625 10.8148C117.296 7.40215 113.268 4.68103 108.793 2.82055C104.317 0.960073 99.4892 0 94.6093 0C89.7295 0 84.9017 0.960073 80.4262 2.82055C75.9506 4.68103 71.923 7.40215 68.5934 10.8148C65.4877 13.938 62.9809 17.5598 61.1878 21.5144C59.3935 17.5635 56.8867 13.9454 53.7821 10.8253C50.4525 7.41264 46.4249 4.69152 41.9493 2.83105C37.4738 0.970568 32.646 0.0104932 27.7662 0.0104932C22.8863 0.0104932 18.0585 0.970568 13.583 2.83105C9.10746 4.69152 5.07977 7.41264 1.75025 10.8253C1.38578 11.1939 1.11982 11.6412 0.975016 12.1293C0.830214 12.6174 0.810861 13.1317 0.918605 13.6285C1.02635 14.1252 1.258 14.5898 1.59383 14.9824C1.92965 15.3751 2.35972 15.6844 2.84739 15.8838L36.7654 29.9995C35.7506 30.1779 34.7357 30.3878 33.7264 30.6449C28.8592 31.8643 24.2928 33.9941 20.2912 36.9114C16.2895 39.8287 12.9318 43.4756 10.4122 47.6415C7.87559 51.7814 6.22926 56.3645 5.56984 61.1215C4.91042 65.8784 5.2512 70.7135 6.57218 75.3428C6.71259 75.8417 6.9792 76.2999 7.34848 76.6769C7.71776 77.0539 8.17836 77.3382 8.68965 77.5048C9.03082 77.6149 9.38833 77.6716 9.74839 77.6727C10.47 77.6727 11.1715 77.4459 11.7452 77.0272L57.8963 43.3648V99.7015C57.8963 100.537 58.2431 101.337 58.8604 101.928C59.4776 102.518 60.3148 102.85 61.1878 102.85C62.0607 102.85 62.8979 102.518 63.5151 101.928C64.1324 101.337 64.4792 100.537 64.4792 99.7015V43.3648L110.652 77.0167C111.226 77.4354 111.927 77.6622 112.649 77.6622C113.009 77.6611 113.367 77.6044 113.708 77.4943C114.219 77.3278 114.68 77.0434 115.049 76.6664C115.418 76.2894 115.685 75.8312 115.825 75.3323C117.146 70.703 117.487 65.868 116.828 61.111C116.168 56.354 114.522 51.7709 111.985 47.631C109.466 43.4651 106.108 39.8182 102.106 36.9009C98.1046 33.9836 93.5383 31.8538 88.6711 30.6344C87.6617 30.3773 86.6469 30.1674 85.632 29.989L119.55 15.8733C120.038 15.6739 120.468 15.3646 120.804 14.9719C121.139 14.5793 121.371 14.1147 121.479 13.618C121.587 13.1212 121.567 12.6069 121.422 12.1188C121.278 11.6307 121.012 11.1834 120.647 10.8148H120.625ZM27.7689 6.29672C31.7551 6.30573 35.6971 7.0964 39.3513 8.61989C43.0056 10.1434 46.2945 12.3674 49.015 15.1544C53.5526 19.7302 56.5145 25.5267 57.5014 31.7626L10.1324 12.0689C15.1817 8.33142 21.3844 6.30138 27.7689 6.29672ZM11.9756 68.9147C11.2937 62.6111 12.7311 56.2638 16.0789 50.7952C18.1711 47.3474 20.9559 44.3298 24.2728 41.9161C27.5896 39.5025 31.3731 37.7406 35.405 36.732C38.1104 36.0392 40.8987 35.6864 43.6994 35.6825C47.5281 35.6812 51.3254 36.3443 54.9066 37.6398L11.9756 68.9147ZM106.297 50.7952C109.644 56.2638 111.082 62.6111 110.4 68.9147L67.4798 37.6346C74.5334 35.0967 82.2978 35.0256 89.4008 37.4338C96.5038 39.8421 102.488 44.5746 106.297 50.7952ZM64.8741 31.7626C65.861 25.5267 68.8229 19.7302 73.3605 15.1544C76.081 12.3674 79.3699 10.1434 83.0241 8.61989C86.6784 7.0964 90.6204 6.30573 94.6066 6.29672C100.991 6.30138 107.194 8.33142 112.243 12.0689L64.8741 31.7626Z" fill="#FC8B41"/>
</svg>
