<svg width="860" height="601" viewBox="0 0 860 601" fill="none" xmlns="http://www.w3.org/2000/svg">
<path d="M189.743 600.884C140.539 600.891 93.3021 582.825 58.22 550.584C23.1378 518.342 3.0199 474.507 2.20453 428.531C-2.61786 385.217 -1.92133 321.323 29.4243 247.564C61.4665 172.154 123.944 89.9324 237.967 10.0149C243.596 6.0694 250.002 3.19873 256.818 1.56677C263.635 -0.0651855 270.728 -0.426636 277.694 0.503296C291.762 2.38141 304.456 9.40527 312.982 20.0295C321.509 30.6539 325.17 44.0085 323.16 57.1553C321.151 70.3022 313.635 82.1646 302.266 90.1328C218.463 148.869 170.453 205.953 142.966 255.877C168.737 249.692 195.621 248.703 221.833 252.974C248.044 257.246 272.983 266.682 294.993 280.654C317.002 294.625 335.578 312.814 349.487 334.011C363.396 355.208 372.319 378.929 375.664 403.596C379.008 428.264 376.698 453.315 368.886 477.084C361.073 500.853 347.938 522.796 330.353 541.457C312.768 560.117 291.135 575.067 266.892 585.313C242.649 595.559 216.35 600.867 189.743 600.884ZM671.985 600.884C622.78 600.891 575.544 582.825 540.462 550.584C505.38 518.342 485.262 474.507 484.446 428.531C479.624 385.217 480.32 321.323 511.666 247.564C543.655 172.154 606.186 89.9324 720.209 10.0149C725.838 6.0694 732.244 3.19873 739.06 1.56677C745.876 -0.0651855 752.97 -0.426636 759.936 0.503296C774.004 2.38141 786.698 9.40527 795.224 20.0295C803.751 30.6539 807.412 44.0085 805.402 57.1553C803.392 70.3022 795.876 82.1646 784.508 90.1328C700.705 148.869 652.695 205.953 625.207 255.877C650.978 249.692 677.863 248.703 704.074 252.974C730.286 257.246 755.225 266.682 777.234 280.654C799.244 294.625 817.82 312.814 831.729 334.011C845.638 355.208 854.561 378.929 857.905 403.596C861.25 428.264 858.939 453.315 851.127 477.084C843.315 500.853 830.18 522.796 812.595 541.457C795.01 560.117 773.377 575.067 749.134 585.313C724.891 595.559 698.592 600.867 671.985 600.884Z" fill="#F6F4DE"/>
</svg>
