<svg width="113" height="95" viewBox="0 0 113 95" fill="none" xmlns="http://www.w3.org/2000/svg">
<path d="M56.2 6.24945C54.9131 6.24945 53.6387 6.47575 52.4497 6.91544C51.2607 7.35513 50.1804 7.9996 49.2704 8.81204C48.3603 9.62448 47.6385 10.589 47.146 11.6505C46.6535 12.712 46.4 13.8497 46.4 14.9987C46.4 16.1476 46.6535 17.2854 47.146 18.3469C47.6385 19.4084 48.3603 20.3729 49.2704 21.1853C50.1804 21.9978 51.2607 22.6422 52.4497 23.0819C53.6387 23.5216 54.9131 23.7479 56.2 23.7479C58.7991 23.7479 61.2918 22.8261 63.1297 21.1853C64.9675 19.5445 66 17.3191 66 14.9987C66 12.6782 64.9675 10.4528 63.1297 8.81204C61.2918 7.17124 58.7991 6.24945 56.2 6.24945ZM39.4 14.9987C39.4 11.0208 41.17 7.20581 44.3206 4.39301C47.4712 1.58021 51.7444 0 56.2 0C60.6556 0 64.9288 1.58021 68.0794 4.39301C71.23 7.20581 73 11.0208 73 14.9987C73 18.9766 71.23 22.7915 68.0794 25.6043C64.9288 28.4171 60.6556 29.9973 56.2 29.9973C51.7444 29.9973 47.4712 28.4171 44.3206 25.6043C41.17 22.7915 39.4 18.9766 39.4 14.9987ZM92.6 11.249C90.7435 11.249 88.963 11.9074 87.6503 13.0794C86.3375 14.2514 85.6 15.841 85.6 17.4985C85.6 19.1559 86.3375 20.7455 87.6503 21.9175C88.963 23.0895 90.7435 23.7479 92.6 23.7479C94.4565 23.7479 96.237 23.0895 97.5498 21.9175C98.8625 20.7455 99.6 19.1559 99.6 17.4985C99.6 15.841 98.8625 14.2514 97.5498 13.0794C96.237 11.9074 94.4565 11.249 92.6 11.249ZM78.6 17.4985C78.6 14.1835 80.075 11.0044 82.7005 8.6604C85.326 6.3164 88.887 4.99956 92.6 4.99956C96.313 4.99956 99.874 6.3164 102.5 8.6604C105.125 11.0044 106.6 14.1835 106.6 17.4985C106.6 20.8134 105.125 23.9925 102.5 26.3365C99.874 28.6805 96.313 29.9973 92.6 29.9973C88.887 29.9973 85.326 28.6805 82.7005 26.3365C80.075 23.9925 78.6 20.8134 78.6 17.4985ZM12.8 17.4985C12.8 15.841 13.5375 14.2514 14.8503 13.0794C16.163 11.9074 17.9435 11.249 19.8 11.249C21.6565 11.249 23.437 11.9074 24.7498 13.0794C26.0625 14.2514 26.8 15.841 26.8 17.4985C26.8 19.1559 26.0625 20.7455 24.7498 21.9175C23.437 23.0895 21.6565 23.7479 19.8 23.7479C17.9435 23.7479 16.163 23.0895 14.8503 21.9175C13.5375 20.7455 12.8 19.1559 12.8 17.4985ZM19.8 4.99956C16.087 4.99956 12.526 6.3164 9.90052 8.6604C7.27501 11.0044 5.80001 14.1835 5.80001 17.4985C5.80001 20.8134 7.27501 23.9925 9.90052 26.3365C12.526 28.6805 16.087 29.9973 19.8 29.9973C23.513 29.9973 27.074 28.6805 29.6995 26.3365C32.325 23.9925 33.8 20.8134 33.8 17.4985C33.8 14.1835 32.325 11.0044 29.6995 8.6604C27.074 6.3164 23.513 4.99956 19.8 4.99956ZM31 45.621C31 42.8033 32.2538 40.101 34.4854 38.1086C36.7171 36.1162 39.7439 34.9969 42.9 34.9969H69.5C72.6561 34.9969 75.6829 36.1162 77.9146 38.1086C80.1463 40.101 81.4 42.8033 81.4 45.621V72.4936C81.4 78.4604 78.745 84.1829 74.0191 88.4021C69.2932 92.6213 62.8835 94.9916 56.2 94.9916C49.5166 94.9916 43.1068 92.6213 38.3809 88.4021C33.655 84.1829 31 78.4604 31 72.4936V45.621ZM56.2 88.7422C61.027 88.7422 65.6562 87.0303 69.0694 83.9831C72.4825 80.9359 74.4 76.803 74.4 72.4936V45.621C74.4 44.4607 73.8838 43.348 72.9648 42.5276C72.0459 41.7072 70.7996 41.2464 69.5 41.2464H42.9C41.6005 41.2464 40.3541 41.7072 39.4352 42.5276C38.5163 43.348 38 44.4607 38 45.621V72.4936C38 76.803 39.9175 80.9359 43.3307 83.9831C46.7438 87.0303 51.3731 88.7422 56.2 88.7422ZM19.8 81.2428C22.1411 81.2434 24.4361 80.6617 26.4276 79.563C27.0408 81.6278 27.9172 83.5951 29.0204 85.4374C26.0338 86.8589 22.6857 87.5657 19.3022 87.489C15.9188 87.4122 12.6152 86.5546 9.71325 84.9995C6.8113 83.4445 4.40983 81.2451 2.74269 78.6154C1.07555 75.9857 0.199561 73.0155 0.200013 69.9938V45.6235C0.199645 44.2281 0.507176 42.8463 1.10504 41.557C1.70291 40.2678 2.5794 39.0963 3.68445 38.1095C4.78951 37.1227 6.10148 36.3399 7.54543 35.8059C8.98939 35.2718 10.537 34.9969 12.1 34.9969H27.5C28.3083 34.9986 29.0932 35.0677 29.8548 35.2044C28.111 36.942 26.826 39.0066 26.0944 41.2464H12.1C10.8005 41.2464 9.55412 41.7072 8.63519 42.5276C7.71626 43.348 7.20001 44.4607 7.20001 45.621V69.9938C7.20001 72.9772 8.52751 75.8385 10.8905 77.9481C13.2534 80.0577 16.4583 81.2428 19.8 81.2428ZM92.6 87.4923C89.3845 87.4938 86.218 86.7889 83.3796 85.4399C84.4828 83.5951 85.3592 81.6278 85.9724 79.563C87.8812 80.6169 90.0706 81.1965 92.3144 81.242C94.5581 81.2874 96.7747 80.797 98.735 79.8214C100.695 78.8458 102.328 77.4204 103.465 75.6926C104.601 73.9649 105.2 71.9975 105.2 69.9938V45.621C105.2 44.4607 104.684 43.348 103.765 42.5276C102.846 41.7072 101.6 41.2464 100.3 41.2464H86.3056C85.5732 39.0064 84.2872 36.9417 82.5424 35.2044C83.3077 35.0677 84.0936 34.9986 84.9 34.9969H100.3C103.456 34.9969 106.483 36.1162 108.715 38.1086C110.946 40.101 112.2 42.8033 112.2 45.621V69.9938C112.2 74.6347 110.135 79.0855 106.459 82.3671C102.784 85.6487 97.7983 87.4923 92.6 87.4923Z" fill="#FC8B41"/>
</svg>
