<svg width="138" height="130" viewBox="0 0 138 130" fill="none" xmlns="http://www.w3.org/2000/svg">
<path d="M111.826 27.3264C108.443 19.2699 102.55 12.3545 94.9137 7.48059C87.2775 2.60666 78.2522 0 69.0128 0C59.7734 0 50.7481 2.60666 43.1119 7.48059C35.4757 12.3545 29.5824 19.2699 26.1994 27.3264C18.423 30.4554 11.7964 35.6524 7.13978 42.2742C2.48315 48.896 0.000872128 56.6519 0.000157512 64.5821C-0.0637431 86.138 19.3237 104.856 42.3343 105.401C50.8465 105.592 59.2322 103.444 66.4568 99.2212V126.968C66.4568 127.604 66.7261 128.213 67.2054 128.662C67.6847 129.111 68.3349 129.364 69.0128 129.364C69.6907 129.364 70.3408 129.111 70.8202 128.662C71.2995 128.213 71.5688 127.604 71.5688 126.968V99.2272C78.4692 103.263 86.4387 105.406 94.573 105.413H95.6721C118.676 104.868 138.064 86.1739 138 64.5941C138.003 56.6647 135.525 48.9084 130.873 42.2847C126.221 35.661 119.599 30.4604 111.826 27.3264ZM95.5635 100.622C86.931 100.821 78.4786 98.2898 71.5688 93.4371V66.1928L100.829 52.4869C101.129 52.3461 101.397 52.1513 101.617 51.9135C101.837 51.6758 102.005 51.3997 102.111 51.1012C102.218 50.8026 102.26 50.4873 102.236 50.1734C102.212 49.8594 102.123 49.553 101.973 49.2715C101.822 48.99 101.615 48.7389 101.361 48.5327C101.107 48.3265 100.812 48.1691 100.494 48.0696C100.175 47.9701 99.8388 47.9304 99.5037 47.9527C99.1687 47.975 98.8417 48.0589 98.5412 48.1997L71.5688 60.8218V40.7449C71.5688 40.1097 71.2995 39.5005 70.8202 39.0513C70.3408 38.6021 69.6907 38.3498 69.0128 38.3498C68.3349 38.3498 67.6847 38.6021 67.2054 39.0513C66.7261 39.5005 66.4568 40.1097 66.4568 40.7449V75.1924L39.4843 62.5523C38.8776 62.268 38.1752 62.2212 37.5317 62.4222C36.8882 62.6233 36.3562 63.0556 36.0529 63.6241C35.7495 64.1926 35.6996 64.8508 35.9141 65.4538C36.1286 66.0568 36.59 66.5553 37.1967 66.8395L66.4568 80.5455V93.4371C59.5504 98.2961 51.0957 100.828 42.4621 100.622C22.1609 100.143 5.05469 83.6471 5.1122 64.6061C5.11402 57.4496 7.4055 50.4579 11.6907 44.534C15.9759 38.6102 22.058 34.0262 29.1516 31.3741C29.4843 31.2477 29.7848 31.0571 30.0336 30.8147C30.2824 30.5722 30.474 30.2834 30.5958 29.967C33.4713 22.5851 38.6993 16.2101 45.5711 11.7057C52.443 7.20138 60.6265 4.78553 69.0128 4.78553C77.399 4.78553 85.5826 7.20138 92.4544 11.7057C99.3263 16.2101 104.554 22.5851 107.43 29.967C107.553 30.2812 107.745 30.5677 107.994 30.808C108.243 31.0483 108.543 31.2371 108.874 31.3621C115.967 34.0156 122.048 38.5999 126.333 44.5235C130.618 50.447 132.91 57.438 132.913 64.5941C132.971 83.6351 115.865 100.131 95.5635 100.622Z" fill="#FC8B41"/>
</svg>
